<svg viewBox="0 0 1440 1200" width="1440" height="1200" fill="none" xmlns="http://www.w3.org/2000/svg">
  <rect width="1440" height="1200" fill="#141414"/>
  <!-- Grid lines -->
  <g stroke="#f2e5b7" stroke-width="1" opacity="0.13">
    <!-- Vertical -->
    <line x1="80" y1="0" x2="80" y2="1200"/>
    <line x1="176" y1="0" x2="176" y2="1200"/>
    <line x1="272" y1="0" x2="272" y2="1200"/>
    <line x1="368" y1="0" x2="368" y2="1200"/>
    <line x1="464" y1="0" x2="464" y2="1200"/>
    <line x1="560" y1="0" x2="560" y2="1200"/>
    <line x1="656" y1="0" x2="656" y2="1200"/>
    <line x1="752" y1="0" x2="752" y2="1200"/>
    <line x1="848" y1="0" x2="848" y2="1200"/>
    <line x1="944" y1="0" x2="944" y2="1200"/>
    <line x1="1040" y1="0" x2="1040" y2="1200"/>
    <line x1="1136" y1="0" x2="1136" y2="1200"/>
    <line x1="1232" y1="0" x2="1232" y2="1200"/>
    <line x1="1328" y1="0" x2="1328" y2="1200"/>
    <line x1="1424" y1="0" x2="1424" y2="1200"/>
    <!-- Horizontal -->
    <line x1="0" y1="72" x2="1440" y2="72"/>
    <line x1="0" y1="156" x2="1440" y2="156"/>
    <line x1="0" y1="240" x2="1440" y2="240"/>
    <line x1="0" y1="324" x2="1440" y2="324"/>
    <line x1="0" y1="408" x2="1440" y2="408"/>
    <line x1="0" y1="492" x2="1440" y2="492"/>
    <line x1="0" y1="576" x2="1440" y2="576"/>
    <line x1="0" y1="660" x2="1440" y2="660"/>
    <line x1="0" y1="744" x2="1440" y2="744"/>
    <line x1="0" y1="828" x2="1440" y2="828"/>
    <line x1="0" y1="912" x2="1440" y2="912"/>
    <line x1="0" y1="996" x2="1440" y2="996"/>
    <line x1="0" y1="1080" x2="1440" y2="1080"/>
    <line x1="0" y1="1164" x2="1440" y2="1164"/>
  </g>
  <!-- Decorative waves -->
  <path d="M0 126 Q360 134 720 126 T1440 126" stroke="#f0b323" stroke-width="1.5" opacity="0.35" fill="none"/>
  <path d="M0 188 Q480 198 960 188 T1440 188" stroke="#d84b3a" stroke-width="1.5" opacity="0.24" fill="none"/>
</svg>
